<svg width="21" height="20" viewBox="0 0 21 20" fill="none" xmlns="http://www.w3.org/2000/svg">
<path d="M10.5 0.416672C15.7929 0.416672 20.0833 4.70713 20.0833 10C20.0833 15.2929 15.7929 19.5833 10.5 19.5833C5.20712 19.5833 0.916656 15.2929 0.916656 10C0.916656 4.70713 5.20712 0.416672 10.5 0.416672ZM13.95 5.4C13.8493 5.32449 13.7347 5.26955 13.6128 5.23832C13.4909 5.20709 13.364 5.20017 13.2395 5.21797C13.1149 5.23577 12.995 5.27793 12.8867 5.34205C12.7784 5.40617 12.6838 5.49099 12.6083 5.59167L10.5 8.40246L8.39166 5.59167C8.31615 5.49099 8.22155 5.40617 8.11325 5.34205C8.00496 5.27793 7.8851 5.23577 7.76052 5.21797C7.63593 5.20017 7.50906 5.20709 7.38715 5.23832C7.26524 5.26955 7.15067 5.32449 7.04999 5.4C6.94931 5.47551 6.86449 5.57012 6.80037 5.67841C6.73625 5.7867 6.69409 5.90656 6.67629 6.03114C6.65849 6.15573 6.66541 6.2826 6.69664 6.40451C6.72787 6.52642 6.78281 6.64099 6.85832 6.74167L9.30207 10L6.85832 13.2583C6.70582 13.4617 6.64034 13.7173 6.67629 13.9689C6.71223 14.2205 6.84666 14.4475 7.04999 14.6C7.25332 14.7525 7.50891 14.818 7.76052 14.782C8.01213 14.7461 8.23916 14.6117 8.39166 14.4083L10.5 11.5975L12.6083 14.4083C12.7608 14.6117 12.9878 14.7461 13.2395 14.782C13.4911 14.818 13.7467 14.7525 13.95 14.6C14.1533 14.4475 14.2877 14.2205 14.3237 13.9689C14.3596 13.7173 14.2942 13.4617 14.1417 13.2583L11.6979 10L14.1417 6.74167C14.2172 6.64099 14.2721 6.52642 14.3033 6.40451C14.3346 6.2826 14.3415 6.15573 14.3237 6.03114C14.3059 5.90656 14.2637 5.7867 14.1996 5.67841C14.1355 5.57012 14.0507 5.47551 13.95 5.4Z" fill="#BABABA"/>
</svg>
